<?xml version="1.0" standalone="no"?>
<!DOCTYPE svg PUBLIC "-//W3C//DTD SVG 20010904//EN"
 "http://www.w3.org/TR/2001/REC-SVG-20010904/DTD/svg10.dtd">
<svg version="1.0" xmlns="http://www.w3.org/2000/svg"
 width="500.000000pt" height="500.000000pt" viewBox="0 0 500.000000 500.000000"
 preserveAspectRatio="xMidYMid meet">

<g transform="translate(0.000000,500.000000) scale(0.100000,-0.100000)"
fill="#000000" stroke="none">
<path fill="#001942" d="M4182 3205 l3 -134 -30 29 c-67 65 -165 78 -254 34 -192 -96 -182
-418 16 -501 43 -17 135 -17 178 2 20 8 49 29 65 47 l30 32 0 -42 0 -42 55 0
55 0 0 355 0 355 -61 0 -60 0 3 -135z m-65 -183 c62 -44 83 -154 43 -220 -44
-71 -144 -95 -210 -49 -130 89 -63 307 91 294 26 -2 60 -13 76 -25z"/>
<path fill="#001942" d="M604 3291 c-67 -41 -64 -12 -64 -579 0 -459 2 -515 16 -538 34 -51
51 -54 349 -54 l275 0 0 -69 0 -69 -155 -4 c-174 -3 -189 -9 -189 -73 0 -73
-26 -70 545 -70 l511 0 19 24 c24 30 24 62 0 92 -18 23 -25 24 -175 27 l-156
4 0 69 0 69 284 0 c275 0 284 1 311 22 55 43 55 46 55 575 0 454 -1 491 -18
523 -39 73 0 70 -832 70 -716 0 -746 -1 -776 -19z m1495 -117 c21 -26 21 -37
21 -466 l0 -439 -25 -24 -24 -25 -680 0 c-496 0 -687 3 -706 12 -44 20 -46 52
-43 504 3 398 4 423 22 443 19 21 20 21 717 21 l698 0 20 -26z"/>
<path fill="#B31D1D" d="M1287 3003 c-4 -3 -7 -46 -7 -95 l0 -88 -84 0 c-108 0 -116 -7 -116
-101 0 -106 3 -109 110 -109 l89 0 3 -92 3 -93 94 -3 c69 -2 97 1 103 10 4 7
8 50 8 96 l0 82 89 0 c72 0 90 3 95 16 11 29 7 169 -6 182 -7 7 -44 12 -95 12
l-83 0 0 83 c0 51 -5 88 -12 95 -13 13 -179 17 -191 5z"/>
<path fill="#001942" d="M2360 2970 l0 -340 65 0 65 0 0 242 0 241 100 -139 c55 -76 107 -140
114 -142 16 -3 30 14 146 173 l80 109 0 -242 0 -242 60 0 60 0 0 340 0 340
-53 0 -53 0 -114 -155 c-63 -85 -118 -154 -121 -155 -3 0 -57 70 -119 155
l-114 155 -58 0 -58 0 0 -340z"/>
<path fill="#001942" d="M3345 3144 c-131 -46 -202 -197 -160 -340 21 -75 99 -156 166 -174
119 -32 237 5 297 94 17 26 32 52 32 57 0 5 -27 9 -61 9 -54 0 -64 -3 -90 -29
-75 -75 -200 -34 -234 77 l-6 22 206 0 207 0 -7 58 c-9 73 -24 109 -66 157
-67 76 -184 105 -284 69z m137 -96 c40 -12 88 -58 88 -84 0 -11 -25 -14 -135
-14 -74 0 -135 2 -135 5 0 4 7 19 15 35 16 30 39 47 84 61 36 10 39 10 83 -3z"/>
<path fill="#B31D1D" d="M2965 2572 c-86 -18 -65 -138 22 -130 51 4 81 45 64 87 -14 31 -51
50 -86 43z"/>
<path fill="#B31D1D" d="M2370 2180 l0 -340 215 0 215 0 0 55 0 55 -155 0 -155 0 0 285 0 285
-60 0 -60 0 0 -340z"/>
<path fill="#B31D1D" d="M3915 2357 c-95 -38 -156 -109 -175 -203 -26 -122 36 -250 145 -300
111 -52 250 -20 322 75 48 62 45 71 -28 71 -53 0 -64 -3 -81 -25 -28 -35 -88
-51 -137 -36 -46 13 -101 71 -101 106 l0 25 201 0 202 0 -6 54 c-10 101 -64
183 -146 223 -44 21 -155 27 -196 10z m151 -107 c26 -13 48 -33 57 -53 l16
-32 -136 -3 c-75 -1 -138 -1 -140 2 -12 12 35 68 72 86 51 25 78 25 131 0z"/>
<path fill="#B31D1D" d="M2927 2353 c-4 -3 -7 -120 -7 -260 l0 -253 60 0 60 0 0 260 0 260
-53 0 c-30 0 -57 -3 -60 -7z"/>
<path fill="#B31D1D" d="M3164 2338 c3 -13 48 -129 100 -258 l94 -235 57 0 57 0 94 235 c52
129 97 245 100 258 6 21 3 22 -54 22 l-60 0 -51 -131 c-29 -73 -59 -155 -68
-182 l-16 -51 -14 40 c-7 21 -39 103 -69 182 l-56 142 -60 0 c-57 0 -60 -1
-54 -22z"/>
</g>
</svg>
